<svg width="50" height="47" viewBox="0 0 50 47" fill="none" xmlns="http://www.w3.org/2000/svg">
<path d="M44.1357 14.5043C41.4306 10.2271 41.308 4.84401 39.3099 2.88651C37.3117 0.929014 32.7687 -0.108461 29.941 0.00898916C27.1134 0.126439 25.6431 1.53584 22.4008 3.00396C19.1584 4.47208 17.7446 3.86526 16.7455 3.98271C16.1325 4.06088 15.5365 4.24619 14.983 4.53081C14.983 4.53081 12.8623 3.79675 9.21466 5.88148C5.56704 7.96622 6.75464 11.5093 5.38796 12.7914C3.43691 14.6217 0.722401 17.3133 0.0909014 20.2495C-0.540598 23.1858 2.25874 33.2865 4.14381 37.5636C6.02888 41.8407 9.5634 44.2974 11.0338 44.4148C13.1919 44.3438 15.3313 43.9752 17.3959 43.3186C18.871 42.9314 20.4205 42.9754 21.8729 43.4459C23.3433 43.8178 26.9438 45.6481 30.8836 46.02C34.8234 46.3919 37.2457 43.8178 38.1882 42.9663C40.4529 40.7083 42.5044 38.2306 44.3147 35.5669C47.378 31.2898 49.15 28.4123 49.2065 25.476C49.2631 22.5398 46.8502 18.7814 44.1357 14.5043ZM16.114 5.75425C16.4251 5.68573 17.2922 5.75425 19.9407 5.3236C22.5893 4.89295 25.8881 2.51459 26.1238 2.93545C26.3594 3.35631 26.1803 5.99893 25.1247 6.90917C24.069 7.81941 21.4771 8.01516 19.8276 7.70196C18.1782 7.38876 15.6239 5.88148 16.114 5.75425ZM43.7304 33.2865C41.0818 36.4674 37.3117 42.3986 35.4266 43.3186C33.2579 44.292 30.858 44.5682 28.5367 44.1114C26.3029 43.622 23.7674 40.813 19.8182 41.2339C15.869 41.6548 13.8048 43.5731 10.619 42.5161C7.43326 41.459 4.5491 33.952 3.42748 29.4889C2.30586 25.0258 0.844931 21.3555 2.31529 18.9086C3.78565 16.4618 6.26452 14.0736 6.91487 13.0949C7.56522 12.1161 8.32867 8.63177 9.50685 7.71174C10.685 6.79172 13.6352 5.56828 14.163 5.99893C15.3061 7.48755 16.9063 8.52397 18.6966 8.93518C21.9955 9.8552 24.3518 9.97265 26.595 7.77047C27.2194 7.22075 27.7065 6.52251 28.015 5.73521C28.3236 4.9479 28.4443 4.09484 28.367 3.24865C28.4323 2.76293 28.6138 2.30194 28.8948 1.90776C29.1305 1.7218 36.6708 2.21117 38.3768 4.48187C40.0827 6.75257 40.4975 13.0459 43.0329 16.9609C45.5683 20.8759 46.9821 22.8921 46.9821 25.4075C46.9821 27.9229 46.3789 30.1055 43.7304 33.2865ZM10.4588 11.2744C10.9003 10.628 11.2703 9.93194 11.5616 9.19944C11.7972 8.67092 13.1733 8.59262 13.4466 8.42623C13.72 8.25984 13.4466 7.81941 13.3335 7.52578C13.2204 7.23216 11.5239 7.77047 10.9772 8.09345C10.2295 8.90538 9.72518 9.92553 9.5257 11.0297C9.61995 11.1765 10.2043 11.4701 10.4588 11.2744ZM4.80359 17.9201C4.25804 18.7806 3.82389 19.7119 3.51231 20.69C3.41847 21.5179 3.44388 22.3558 3.58771 23.176C3.66312 23.7045 4.53025 23.3815 4.80359 23.2543C5.07692 23.127 4.72818 22.1581 4.72818 20.8857C4.72818 19.6133 5.94406 18.6835 6.10429 18.3997C6.26452 18.1158 4.99209 17.7341 4.74703 17.9495L4.80359 17.9201ZM36.2089 7.83898C36.2895 7.40185 36.2493 6.94998 36.093 6.53556C35.9367 6.12115 35.6707 5.7611 35.3257 5.49702C34.9807 5.23294 34.5708 5.07561 34.1433 5.04319C33.7159 5.01077 33.2883 5.10459 32.91 5.31381C32.564 5.46998 32.2591 5.71017 32.021 6.01419C31.7829 6.3182 31.6186 6.67714 31.542 7.06081C31.4653 7.44448 31.4785 7.84166 31.5804 8.21893C31.6824 8.59621 31.8701 8.94254 32.1277 9.2288C33.0231 10.0412 35.8508 10.0803 36.2089 7.83898ZM33.3813 6.34149C33.5717 6.23524 33.7872 6.18734 34.0027 6.20337C34.2183 6.2194 34.425 6.2987 34.5989 6.43203C34.7727 6.56537 34.9065 6.74724 34.9846 6.95648C35.0627 7.16572 35.082 7.3937 35.0402 7.61387C34.8611 8.73943 33.4379 8.71986 32.9854 8.28921C32.8686 8.1445 32.7853 7.97386 32.7421 7.79045C32.6988 7.60704 32.6966 7.41576 32.7358 7.23136C32.775 7.04695 32.8544 6.87435 32.9679 6.72685C33.0815 6.57936 33.2261 6.46091 33.3907 6.38064L33.3813 6.34149ZM24.4272 14.2106C24.6251 12.2531 22.7306 11.9693 21.9578 12.1748C20.3837 12.5859 20.3837 14.8272 21.2509 15.2775C22.118 15.7277 24.2293 16.2366 24.4272 14.2106ZM21.9955 14.4847C21.8964 14.3907 21.8232 14.2709 21.7836 14.1378C21.7439 14.0046 21.7392 13.8629 21.77 13.7272C21.8007 13.5915 21.8658 13.4668 21.9584 13.366C22.0511 13.2652 22.168 13.1918 22.2971 13.1536C22.6364 13.0655 23.447 13.1536 23.3621 14.0345C23.2773 14.9153 22.363 14.7098 21.986 14.514L21.9955 14.4847ZM20.0256 17.1469C17.6315 16.0507 14.2572 15.669 12.9188 16.3345C10.8828 17.5847 9.21418 19.3885 8.09304 21.5513C7.56364 22.4778 7.24588 23.5181 7.16418 24.5921C7.08248 25.6662 7.23902 26.7453 7.62177 27.7467C8.36638 29.4987 9.62938 29.2149 10.8452 29.4595C11.7617 29.7613 12.5418 30.3976 13.0414 31.2507C13.4372 31.7009 15.36 31.6226 15.869 31.5345C16.8382 31.1841 17.7025 30.5768 18.3761 29.7727C19.0453 28.8919 19.8842 26.5527 20.8267 23.127C21.7693 19.7014 22.4196 18.2724 20.0256 17.1469ZM20.4968 20.0831C19.9362 22.1032 19.2691 24.0898 18.4986 26.0339C17.6786 28.3633 17.6786 28.8919 16.4533 29.6651C15.228 30.4383 14.3326 30.7221 14.0216 30.3991C13.3156 29.495 12.3778 28.8164 11.3165 28.4416C9.90271 28.0795 8.84707 27.7859 8.68684 27.3454C8.19759 25.6053 8.32465 23.7408 9.045 22.0896C10.1478 20.0538 12.4193 17.6069 13.5975 17.1958C14.3609 16.9022 17.6032 17.6852 18.7437 18.0571C19.8842 18.429 20.6571 19.1044 20.4968 20.1516V20.0831ZM36.322 22.4126C36.9 22.1032 37.4122 21.6761 37.8279 21.1569C38.2436 20.6376 38.5544 20.0368 38.7417 19.3901C38.9291 18.7435 38.9891 18.0643 38.9183 17.393C38.8475 16.7218 38.6473 16.0722 38.3296 15.483C37.7122 14.1856 36.6365 13.1856 35.3266 12.6915C34.0167 12.1973 32.5737 12.2472 31.2983 12.8306C27.7261 14.9153 27.1323 18.7031 28.7817 21.2772C30.4312 23.8513 34.3238 23.3717 36.322 22.4811V22.4126ZM29.253 17.5188C29.4509 17.5188 30.5066 19.8482 30.827 19.7601C31.1475 19.6721 31.4585 18.9478 31.336 18.7814C30.7613 17.9473 30.2627 17.0593 29.8468 16.129C29.9693 16.0115 30.3558 15.0328 30.5537 15.2775C30.7516 15.5222 31.8073 18.4584 32.0429 18.292C32.2785 18.1256 32.6744 17.3916 32.5142 17.1077C32.3539 16.8239 31.0627 14.6609 31.2606 14.4553C31.4585 14.2498 32.3634 13.5549 32.5142 13.7213C32.665 13.8876 33.1834 15.8451 33.4567 15.8843C33.5926 15.8839 33.7239 15.8335 33.8274 15.7422C33.9309 15.6508 34 15.5243 34.0222 15.3851C34.0222 15.1013 33.551 13.5549 33.8243 13.4276C34.5486 13.5302 35.2382 13.8135 35.8341 14.2532C36.4299 14.693 36.9143 15.2762 37.2457 15.9528C38.2636 18.0767 37.8772 19.3784 37.1703 20.3963C36.5338 21.1513 35.712 21.7129 34.7926 22.0214C33.8731 22.3299 32.8902 22.3738 31.9486 22.1483C31.2621 22.0061 30.6344 21.6481 30.1505 21.1229C29.6666 20.5976 29.3499 19.9305 29.2436 19.212C29.1399 18.6835 29.0551 17.6265 29.253 17.6265V17.5188ZM9.58225 24.3896C10.0344 25.4085 10.5606 26.39 11.1563 27.3259C11.3542 27.4042 11.5899 27.3259 11.8632 27.0812C12.1365 26.8365 10.685 24.1449 10.374 23.8219C10.0629 23.499 9.45972 24.096 9.58225 24.3896ZM11.0338 21.9036C11.6179 23.5047 12.3403 25.0476 13.1922 26.5135C13.3476 26.4657 13.481 26.361 13.5677 26.2188C13.6543 26.0766 13.6884 25.9066 13.6634 25.7403C13.1871 24.2319 12.5551 22.7815 11.7784 21.4142C11.5427 21.2576 11.0903 21.6198 11.0338 21.9036ZM12.7586 19.8678C13.2257 21.2028 13.7637 22.5098 14.3703 23.7828C14.5683 23.9492 14.8416 23.6164 14.917 23.0487C14.6526 21.71 14.1748 20.4265 13.5032 19.2512C13.2864 19.1044 12.702 19.6721 12.7586 19.8678V19.8678ZM14.8793 18.7227C14.9954 19.4552 15.2347 20.1609 15.5862 20.8074C15.8218 21.0912 16.0575 20.7291 16.2177 20.3572C16.2338 19.7022 16.0843 19.0543 15.7841 18.478C15.6616 18.3605 14.8793 18.4878 14.8793 18.7227V18.7227ZM26.8967 26.6799C26.9367 26.3658 26.8958 26.0464 26.7781 25.7541C26.6604 25.4618 26.4702 25.2071 26.2268 25.0161C25.9834 24.825 25.6956 24.7045 25.3927 24.6666C25.0898 24.6288 24.7827 24.675 24.5026 24.8007C23.0134 25.5348 22.8532 27.1693 23.6826 27.9033C24.512 28.6374 26.8967 28.5493 26.8967 26.6799ZM24.4838 27.0714C24.3987 26.9746 24.3388 26.8569 24.3095 26.7294C24.2803 26.6019 24.2828 26.4688 24.3167 26.3425C24.3507 26.2163 24.4149 26.1011 24.5035 26.0077C24.5921 25.9144 24.702 25.8459 24.8231 25.8088C24.9354 25.7669 25.0561 25.7552 25.1739 25.7748C25.2917 25.7944 25.4028 25.8446 25.4969 25.9208C25.591 25.997 25.665 26.0967 25.712 26.2106C25.759 26.3245 25.7774 26.4489 25.7656 26.5722C25.7939 27.3357 24.8231 27.365 24.4838 27.0616V27.0714ZM40.9782 21.9721C39.0931 22.8921 38.914 24.9084 39.9508 25.8871C40.9876 26.8659 43.9754 26.6995 43.9754 24.3603C44.0328 23.9642 43.987 23.5595 43.8428 23.188C43.6985 22.8166 43.461 22.4921 43.155 22.2483C42.849 22.0045 42.4857 21.8503 42.1029 21.8017C41.72 21.7532 41.3317 21.812 40.9782 21.9721V21.9721ZM40.7048 25.065C40.5607 24.8988 40.4592 24.6977 40.4097 24.4801C40.3602 24.2625 40.3643 24.0354 40.4215 23.8199C40.4788 23.6043 40.5875 23.4072 40.7375 23.2468C40.8875 23.0864 41.074 22.9678 41.2798 22.9019C41.4751 22.8158 41.6889 22.7847 41.8996 22.8118C42.1102 22.8389 42.3103 22.9232 42.4795 23.0562C42.6487 23.1893 42.7812 23.3663 42.8634 23.5695C42.9457 23.7727 42.9749 23.9948 42.9481 24.2135C42.9481 25.525 41.2798 25.5739 40.7048 25.065V25.065ZM17.2733 34.7644C16.9504 34.864 16.659 35.0517 16.4296 35.308C16.2002 35.5643 16.0411 35.8797 15.9689 36.2215C15.8968 36.5632 15.9141 36.9188 16.0192 37.2513C16.1243 37.5837 16.3133 37.8808 16.5664 38.1117C17.3488 38.8066 19.8276 39.4134 20.3366 37.2112C20.8456 35.0091 18.3855 34.2261 17.2733 34.7644ZM19.5072 37.0057C19.1961 38.3564 17.6692 37.9844 17.1885 37.5538C17.0418 37.4076 16.9336 37.2247 16.8744 37.0227C16.8152 36.8207 16.807 36.6062 16.8505 36.3999C16.894 36.1936 16.9878 36.0024 17.1229 35.8445C17.258 35.6867 17.4299 35.5675 17.6221 35.4984C18.3101 35.1657 19.8276 35.6354 19.5072 36.9959V37.0057ZM36.8498 32.7579C35.2381 32.5132 33.2022 33.3745 31.4303 33.9031C29.6583 34.4316 28.9137 33.3452 28.0937 33.6584C26.7936 34.4741 25.8403 35.7719 25.4263 37.2895C25.3509 38.2683 26.8778 39.619 27.6224 39.9811C28.5472 40.3481 29.5378 40.5017 30.5254 40.4313C31.9769 40.4313 32.6461 41.1262 33.5887 41.2926C34.5312 41.459 35.0307 40.6369 35.9073 39.7658C36.8581 38.965 37.7644 38.1089 38.6218 37.2014C38.9548 36.3935 39.0908 35.5127 39.0177 34.6371C38.9184 34.1134 38.6489 33.6409 38.2542 33.2989C37.8596 32.9568 37.3638 32.7658 36.8498 32.7579V32.7579ZM38.0657 36.3891C37.9055 36.6338 36.3786 37.7789 35.6717 38.6696C34.9648 39.5602 34.4181 40.216 33.862 40.2649C33.3059 40.3139 32.2503 39.57 31.3454 39.4134C30.4406 39.2568 28.9514 39.4134 28.122 39.0023C27.8009 38.8746 27.5152 38.6666 27.29 38.3969C27.0648 38.1272 26.907 37.804 26.8307 37.4559C26.9223 36.6725 27.2081 35.9272 27.6601 35.2929C27.6601 35.2929 27.7355 37.6615 27.9711 37.7398C28.2068 37.8181 28.6026 37.867 28.6026 37.6615C28.6026 37.4559 28.2916 34.7252 28.6026 34.7252C28.9137 34.7252 29.2718 34.7252 29.3095 34.8916C29.3472 35.058 29.2341 37.9551 29.5452 37.9942C29.8562 38.0334 30.1767 38.1606 30.1767 37.9942C30.1767 37.8278 30.1767 35.058 30.1767 35.058C30.1767 35.058 30.6479 35.058 30.7234 35.1852C30.7988 35.3125 30.7234 38.1215 31.0344 38.1998C31.3454 38.2781 31.6659 38.1998 31.6659 37.9942C31.5539 36.9218 31.5224 35.8419 31.5716 34.7644C31.7319 34.7644 32.5142 34.3141 32.5142 34.4805C32.5142 34.6469 32.5142 36.8491 32.7121 36.8491C32.91 36.8491 33.4944 36.8491 33.4944 36.5653C33.4944 36.2814 33.2965 34.4022 33.4944 34.2848C33.6923 34.1673 34.5972 33.7954 34.6349 33.9618C34.6726 34.1282 34.5595 35.5572 34.7103 35.5572C34.8611 35.5572 35.3418 35.5572 35.3418 35.2733C35.3418 34.9895 35.3418 33.766 35.502 33.7269C35.6622 33.6877 37.6227 33.7269 37.8584 34.2554C38.1093 34.9316 38.1745 35.6669 38.0469 36.3793L38.0657 36.3891ZM28.6403 28.148C28.7629 28.2263 29.7808 31.5736 29.7808 31.5736C30.1059 31.5794 30.428 31.5091 30.7234 31.3681C30.9967 31.1626 29.7054 28.0208 29.5452 27.8642C29.3849 27.7076 28.4141 27.9718 28.6686 28.148H28.6403ZM31.8638 29.4987C31.8209 28.2444 31.5424 27.0109 31.0438 25.8675C30.7705 25.662 30.205 26.1318 30.1013 26.2786C30.3126 27.4274 30.6024 28.559 30.9684 29.6651C31.025 29.8706 31.6847 29.7336 31.8827 29.4889L31.8638 29.4987ZM32.4105 25.4662C32.3774 26.5063 32.4564 27.547 32.6461 28.5689C32.7687 28.8919 33.353 28.5689 33.5133 28.4906C33.5048 27.4464 33.3878 26.4061 33.1645 25.3879C33.0797 25.0845 32.5519 25.2901 32.4388 25.4565L32.4105 25.4662ZM37.5567 30.36C37.4813 30.2817 37.0101 31.0549 37.0478 31.2604C37.9443 32.0681 38.8887 32.8167 39.8754 33.5018C40.5069 33.9912 40.5634 33.4039 40.5634 32.9733C40.5634 32.5426 37.7076 30.5166 37.5756 30.3894L37.5567 30.36ZM38.4993 28.0404C38.2636 27.9621 37.783 28.3438 37.8301 28.5689C38.8614 29.9218 40.0202 31.1644 41.2892 32.2783C41.4871 32.2783 41.6851 31.9554 41.883 31.789C42.0809 31.6226 38.7349 28.148 38.4804 28.0599L38.4993 28.0404ZM40.4598 27.0616C40.1487 26.8561 39.7529 27.551 39.7529 27.551C39.7529 27.551 42.0715 30.6536 42.2694 30.7711C42.4674 30.8885 42.9009 30.4089 42.9763 30.1153C43.0517 29.8217 40.7614 27.2867 40.4503 27.0812L40.4598 27.0616Z" fill="#FBFBFD"/>
</svg>
