<svg width="50" height="47" viewBox="0 0 50 47" fill="none" xmlns="http://www.w3.org/2000/svg">
<path d="M16.059 28.8471C16.269 28.7698 16.309 28.7311 16.309 28.3637C16.309 27.9964 15.889 28.0834 15.139 27.281C13.9534 25.9898 13.274 24.3374 13.219 22.6118C13.009 20.0789 15.349 17.3721 15.759 16.6471C16.169 15.9221 15.759 15.023 15.219 15.0327C8.88898 15.2357 8.21898 20.3496 8.08898 21.5967C7.95898 22.8438 8.00898 26.353 10.379 27.919C12.0801 28.9186 14.1125 29.2507 16.059 28.8471V28.8471ZM10.189 19.0252C10.859 17.7395 11.819 16.2894 13.819 16.0091C14.279 15.9414 14.569 16.2894 14.359 16.4538C14.149 16.6181 11.649 19.3539 11.779 22.2541C11.909 25.1542 12.659 26.44 13.139 26.9137C13.619 27.3873 13.849 27.6 13.719 27.716C12.9559 27.6815 12.2128 27.4692 11.5529 27.0972C10.893 26.7252 10.3359 26.2046 9.92898 25.5796C8.65898 23.6655 9.51898 20.3206 10.189 19.0252ZM34.859 15.7674C34.989 15.7674 35.069 15.603 35.069 15.3614C34.5821 14.7634 33.9355 14.3055 33.199 14.037C33.1419 14.0668 33.0918 14.1079 33.0519 14.1574C33.012 14.2069 32.9831 14.2639 32.9671 14.3248C32.9512 14.3856 32.9484 14.449 32.9591 14.511C32.9697 14.5729 32.9935 14.6321 33.029 14.6847C33.6034 15.0939 34.2122 15.456 34.849 15.7674H34.859ZM33.489 18.7932C33.659 18.8706 36.989 20.485 37.119 20.485C37.249 20.485 37.249 20.2433 37.249 20.0016C36.0971 19.1946 34.8521 18.5198 33.539 17.9908C33.309 18.0198 33.309 18.7062 33.479 18.7835L33.489 18.7932ZM33.489 21.529C33.699 21.732 37.319 23.7428 37.489 23.7815C37.659 23.8202 37.569 23.4625 37.569 23.2208C36.3774 22.2957 35.0946 21.4862 33.739 20.804C33.599 20.804 33.269 21.326 33.479 21.529H33.489ZM33.569 23.7815C33.569 23.7815 33.239 24.3422 33.279 24.5452C34.5306 25.3761 35.8256 26.144 37.159 26.846C37.159 26.846 37.449 26.527 37.409 26.324C36.218 25.3526 34.9281 24.5007 33.559 23.7815H33.569ZM36.739 30.2295C36.909 30.3068 36.949 29.9492 37.029 29.7848C37.109 29.6205 32.529 26.6816 32.529 26.6816C32.529 26.6816 32.069 27.2037 32.069 27.368C32.069 27.5324 36.559 30.1425 36.729 30.2295H36.739ZM35.159 32.6076C35.3282 32.5089 35.483 32.3886 35.619 32.2499C34.382 31.0929 33.0437 30.0417 31.619 29.1081C31.369 29.1081 31.079 29.3885 31.119 29.5915C31.159 29.7945 35.139 32.6076 35.139 32.6076H35.159ZM30.019 31.0705C29.7971 31.1937 29.6325 31.3943 29.559 31.6312C30.6401 32.5355 31.7826 33.3688 32.979 34.1254C33.1482 34.0267 33.303 33.9064 33.439 33.7677C32.4163 32.7379 31.2679 31.8322 30.019 31.0705ZM22.019 16.0477C22.149 16.1251 21.309 17.1788 21.309 17.1788C21.309 17.1788 21.639 17.6622 21.769 17.6622C22.0667 17.5043 22.3233 17.2827 22.519 17.0145C22.599 16.8501 23.099 17.7008 23.099 17.7008L23.729 17.4591C23.5395 17.0004 23.3857 16.5286 23.269 16.0477C23.269 15.8061 24.689 16.0477 24.689 16.0477C24.777 15.9267 24.8352 15.7878 24.859 15.6417C24.859 15.4774 24.439 15.2357 24.439 15.2357C24.439 15.2357 24.649 14.675 24.519 14.5106C24.389 14.3463 23.229 14.9553 23.229 14.9553C23.229 14.9553 23.149 13.9886 23.149 13.7856C23.149 13.5826 22.859 13.5826 22.569 13.6696C22.279 13.7566 22.199 15.1197 22.199 15.1197C21.8718 15.0437 21.5344 15.0176 21.199 15.0423C21.0628 15.1995 20.9885 15.3981 20.989 15.603C20.979 15.7674 21.889 15.9704 22.019 16.0477V16.0477ZM27.469 28.6151C27.469 28.6151 27.669 28.9051 27.739 28.9051C27.9131 28.813 28.0635 28.6841 28.179 28.5281C28.179 28.4314 28.519 28.9341 28.519 28.9341L28.889 28.7891C28.7923 28.5241 28.7154 28.2527 28.659 27.977C28.659 27.832 29.499 27.977 29.499 27.977C29.5505 27.9047 29.5847 27.8221 29.599 27.7354C29.599 27.6387 29.349 27.4937 29.349 27.4937C29.349 27.4937 29.469 27.165 29.349 27.0683C29.229 26.9717 28.589 27.3293 28.589 27.3293C28.589 27.3293 28.589 26.73 28.589 26.643C28.589 26.556 28.419 26.527 28.249 26.5753C28.079 26.6236 28.029 27.4357 28.029 27.4357C27.8335 27.4061 27.6345 27.4061 27.439 27.4357C27.3605 27.5283 27.318 27.6446 27.319 27.7644C27.319 27.861 27.859 27.977 27.939 28.0254C28.019 28.0737 27.469 28.6441 27.469 28.6441V28.6151ZM15.839 30.8385C15.839 30.8385 15.719 31.2832 15.669 31.3992C15.619 31.5152 15.169 31.3219 14.999 31.2832C14.829 31.2446 14.829 31.5249 14.829 31.7666C14.829 32.0083 15.659 32.1726 15.659 32.1726L14.989 32.8203C15.2163 32.982 15.4534 33.1305 15.699 33.265C15.829 33.265 16.159 32.743 16.159 32.743L16.739 33.5067H17.159L17.039 32.6173H17.709C17.7583 32.378 17.7583 32.1316 17.709 31.8923C17.629 31.6892 16.709 31.6892 16.709 31.6892C16.709 31.6892 16.539 30.7225 16.339 30.6452C16.139 30.5679 16.009 30.7805 15.839 30.8675V30.8385ZM20.909 24.8739C20.909 24.8739 21.159 25.7633 21.409 25.7633H21.909L21.789 24.7965C21.789 24.7965 22.419 24.6805 22.789 24.6322C23.159 24.5839 22.789 24.2745 22.789 24.1102C22.789 23.9458 21.959 24.0328 21.669 24.0328C21.379 24.0328 21.459 23.3851 21.459 23.2691C21.459 23.1531 20.749 23.4721 20.589 23.5495V24.1102H20.219C20.219 24.1102 20.219 24.3905 20.219 24.5162C20.219 24.6419 20.909 24.9125 20.909 24.9125V24.8739ZM28.659 20.5236C28.659 20.5236 28.909 21.413 29.159 21.413H29.659L29.539 20.4463C29.539 20.4463 30.169 20.3303 30.539 20.282C30.909 20.2336 30.539 19.9243 30.539 19.7599C30.539 19.5956 29.709 19.6826 29.419 19.6826C29.129 19.6826 29.209 19.0349 29.209 18.9189C29.209 18.8029 28.499 19.1219 28.339 19.1992V19.7599H27.969C27.969 19.7599 27.969 20.0403 27.969 20.166C27.969 20.2916 28.659 20.5236 28.659 20.5236ZM22.779 30.0942C22.699 29.8911 22.199 29.9298 22.029 30.0168C21.9043 30.3239 21.863 30.6567 21.909 30.9835C21.909 31.2252 21.699 31.1092 21.409 31.3026C21.119 31.4959 21.409 32.1533 21.409 32.1533L22.199 32.4723L22.579 31.9503C22.7195 32.1008 22.8466 32.2625 22.959 32.4336C23.039 32.598 23.709 32.1533 23.709 32.1533L24.059 31.7472L23.479 30.5775C23.479 30.5775 22.889 30.2875 22.809 30.0845L22.779 30.0942ZM47.939 5.81985C47.939 5.81985 49.689 2.15598 47.229 1.39227C44.769 0.628564 43.309 2.19465 43.399 3.88641C43.489 5.57817 45.779 6.3032 45.779 6.3032C45.779 6.3032 46.359 18.3872 46.359 18.5515C45.6411 18.6579 44.913 18.6839 44.189 18.6289C44.189 18.6289 44.189 17.5848 44.109 16.6954C44.029 15.8061 42.659 15.5257 42.659 15.5257C42.659 15.5257 41.489 9.20336 39.489 7.18292C37.489 5.16248 34.059 0.580228 25.889 0.0968686C17.719 -0.386491 13.889 0.899245 8.30898 4.85313C2.72898 8.80701 1.84898 16.2797 1.84898 16.2797C1.47898 16.2797 0.38898 16.3571 0.0989802 16.8404C-0.19102 17.3238 0.22898 23.4045 0.42898 23.9748C0.62898 24.5452 3.17898 25.1446 3.17898 25.1446C3.45933 26.1023 3.79315 27.0446 4.17898 27.9674C4.84898 29.5818 5.96898 31.8343 5.96898 31.8343C5.96898 31.8343 3.71898 36.3875 3.96898 36.9869C4.21898 37.5862 7.17898 40.8537 11.469 43.2705C15.759 45.6873 23.639 47.3791 30.469 44.9236C37.299 42.4682 43.179 37.1899 43.219 36.8322C43.259 36.4745 40.719 30.2295 40.719 30.2295C41.2181 29.6013 41.5603 28.8701 41.719 28.0931C42.0036 26.9996 42.1447 25.8758 42.139 24.7482C42.139 24.7482 43.809 24.4292 44.139 23.9072C44.3628 22.9566 44.4336 21.9784 44.349 21.007C44.349 21.007 47.979 21.2873 48.349 21.21C48.719 21.1327 49.269 20.9683 49.349 20.4076C49.429 19.8469 47.939 5.81985 47.939 5.81985ZM25.099 1.67262C25.2057 2.39282 25.2492 3.12045 25.229 3.84774C25.109 3.84774 23.979 3.97341 23.979 3.97341L23.659 1.67262C23.809 1.62428 25.099 1.67262 25.099 1.67262ZM19.389 1.87563C20.0517 1.78961 20.7213 1.76372 21.389 1.79829C21.4932 2.92317 21.5366 4.05255 21.519 5.18181C20.9585 5.30524 20.3823 5.34759 19.809 5.30748C19.5472 4.17728 19.4065 3.02403 19.389 1.86596V1.87563ZM15.599 2.91969C15.599 2.91969 15.929 4.36977 15.729 4.4471C15.3287 4.50667 14.9239 4.53255 14.519 4.52444L14.269 3.39338C14.439 3.31604 15.599 2.91969 15.599 2.91969V2.91969ZM3.34898 23.6655C2.97442 23.771 2.5719 23.7293 2.22898 23.5495C2.10898 23.3851 1.51898 18.0682 1.80898 17.8265C1.80898 17.8265 3.34898 17.6622 3.38898 17.9522C3.50103 19.8555 3.48767 21.7638 3.34898 23.6655V23.6655ZM4.84898 16.4538C4.84898 16.4538 3.42898 16.5794 3.30898 16.4538C3.82605 13.5546 5.10339 10.832 7.01898 8.54599C8.66167 6.48367 10.8096 4.8491 13.269 3.78974C13.269 3.78974 13.349 5.36549 13.559 5.44282C14.618 5.55041 15.6879 5.49494 16.729 5.27848C16.899 5.0368 16.479 2.45566 16.609 2.37833C17.1995 2.18575 17.8161 2.07826 18.439 2.05931C18.4529 3.35282 18.5498 4.64426 18.729 5.92618C19.4622 6.11363 20.2225 6.18223 20.979 6.1292C21.5983 6.13411 22.2059 5.96629 22.729 5.64584C22.729 5.52983 22.189 1.77896 22.309 1.77896C22.4472 1.74488 22.5875 1.71905 22.729 1.70162C22.729 1.70162 22.939 5.12381 23.189 5.08514C23.439 5.04647 26.359 4.96913 26.319 4.64045C26.279 4.31176 25.859 1.49861 26.109 1.53728C29.3055 1.85574 32.3346 3.07612 34.819 5.04647C38.659 8.19797 40.659 14.9167 40.559 15.0037C40.3289 15.1014 40.0916 15.1822 39.849 15.2454C39.849 15.2454 34.389 9.81239 29.179 9.00035C23.969 8.18831 19.719 7.67595 14.259 10.0927C10.7815 11.6978 7.60202 13.8471 4.84898 16.4538V16.4538ZM5.05898 25.2316C5.05898 24.9512 5.05898 18.3389 5.05898 18.2615C7.7041 15.7907 10.6929 13.6888 13.939 12.0165C18.109 10.0831 23.519 10.0057 27.269 10.6051C31.019 11.2045 34.349 13.5826 36.689 15.1584C39.029 16.7341 39.229 17.2948 39.229 17.2948C39.2125 19.3928 39.3093 21.4902 39.519 23.5785C39.7188 23.9344 39.9715 24.2601 40.269 24.5452C39.9588 26.0645 39.4161 27.5307 38.659 28.8954C37.7246 30.7351 36.423 32.3778 34.829 33.729C33.7883 34.4342 32.6954 35.0642 31.559 35.6141C31.559 35.6141 28.729 32.9556 28.559 32.917C28.389 32.8783 27.729 33.3617 27.849 33.6033C27.969 33.845 30.979 35.9428 30.729 36.0975C28.0003 37.175 25.095 37.7741 22.149 37.8666C17.7761 37.7896 13.572 36.2215 10.279 33.439C7.96596 31.085 6.18788 28.2893 5.05898 25.2316V25.2316ZM8.34898 38.5143C7.40242 37.9715 6.5461 37.2936 5.80898 36.5035C6.08629 35.4097 6.53479 34.3632 7.13898 33.4003C7.35898 33.5453 8.46898 34.7731 9.13898 35.3338C9.45344 35.6106 9.78759 35.8658 10.139 36.0975C10.139 36.0975 8.59898 38.5626 8.34898 38.5143ZM9.47898 39.481C9.35898 39.481 8.85898 39.4037 8.97898 39.2393C9.09898 39.075 10.559 36.3392 10.729 36.1748C10.899 36.0105 11.229 36.3005 11.149 36.4165C11.069 36.5325 9.59898 39.5293 9.47898 39.5293V39.481ZM10.609 40.4477C10.439 40.3704 10.149 40.2834 10.149 40.1674C10.149 40.0514 11.729 37.0255 11.729 37.0255L12.149 37.2672C11.7198 38.3808 11.2016 39.4603 10.599 40.4961L10.609 40.4477ZM41.059 36.4262C40.9308 36.5859 40.7752 36.7233 40.599 36.8322C40.0791 35.8477 39.4806 34.9039 38.809 34.0094C38.599 34.0094 38.139 34.6957 38.139 34.6957C38.139 34.6957 39.809 37.0739 39.639 37.3155C39.284 37.6064 38.8906 37.8502 38.469 38.0406C38.072 37.2197 37.5966 36.4365 37.049 35.7011C36.799 35.6238 36.129 36.1072 36.219 36.3102C36.309 36.5132 37.759 38.6883 37.759 38.6883C37.759 38.6883 36.929 39.4133 36.759 39.336C36.589 39.2587 35.549 37.2382 35.389 37.2382C35.229 37.2382 34.719 37.7989 34.719 37.7989C34.719 37.7989 36.259 39.7323 36.099 39.8967L35.349 40.4574L33.929 38.4079C33.929 38.4079 33.309 38.6496 33.309 38.814C33.309 38.9783 34.769 41.1148 34.689 41.2308C34.609 41.3468 32.229 43.1642 26.939 43.7732C21.649 44.3823 18.319 43.8989 15.399 42.9709C12.479 42.0428 11.399 41.1631 11.319 41.0374C11.6466 39.8514 12.1377 38.7134 12.779 37.6539C15.2231 38.9061 17.9338 39.5943 20.699 39.6647C25.529 39.8677 27.239 39.7903 31.489 37.7312C33.9091 36.6716 36.1111 35.1978 37.989 33.381C38.4395 32.9391 38.9279 32.5348 39.449 32.1726C39.449 32.1726 41.139 36.2715 41.059 36.4262ZM42.439 22.7761C42.279 22.8712 42.0997 22.9317 41.9132 22.9534C41.7268 22.9751 41.5377 22.9575 41.359 22.9018C41.279 22.7858 41.279 16.8211 41.359 16.7824C41.439 16.7438 42.439 16.9081 42.489 17.1498C42.5967 19.0243 42.58 20.9036 42.439 22.7761V22.7761ZM45.659 5.09481C45.39 4.96561 45.1669 4.76178 45.0183 4.50939C44.8698 4.25699 44.8025 3.96749 44.825 3.67791C44.8476 3.38833 44.9589 3.11183 45.1449 2.88378C45.3309 2.65572 45.583 2.48647 45.869 2.39766C46.819 2.04964 47.409 2.80368 47.539 3.80907C47.5704 4.03636 47.5369 4.26764 47.4422 4.47785C47.3474 4.68806 47.1949 4.8692 47.0013 5.00164C46.8076 5.13408 46.5802 5.21277 46.3436 5.22919C46.107 5.24561 45.8702 5.19914 45.659 5.09481V5.09481ZM48.239 19.8759C47.0462 20.0975 45.8252 20.1399 44.619 20.0016C44.449 19.8856 44.619 19.4409 44.619 19.4409C44.619 19.4409 47.409 19.4409 47.409 19.1992C47.409 18.9576 46.909 11.0595 47.159 10.8661C47.409 10.6728 47.449 10.9435 47.579 11.1851C47.9609 14.0683 48.1779 16.9696 48.229 19.8759H48.239Z" fill="#FBFBFD"/>
</svg>
