<svg width="49" height="46" viewBox="0 0 49 46" fill="none" xmlns="http://www.w3.org/2000/svg">
<path d="M31.5702 11.9712C31.7584 12.0369 32.1348 11.4944 32.1348 11.3546C32.1348 11.2149 31.3104 10.771 31.1312 10.1544C30.952 9.53788 31.6509 9.15974 31.7674 9.06109C31.8839 8.96245 31.2297 8.55142 31.1312 8.61719C30.8692 8.79567 30.6577 9.02913 30.5143 9.298C30.3708 9.56688 30.2997 9.86337 30.3068 10.1626C30.4662 10.8894 30.9171 11.5348 31.5702 11.9712V11.9712ZM23.201 21.2192C22.8809 21.246 22.5701 21.3327 22.2881 21.4742C22.006 21.6156 21.7586 21.8086 21.5612 22.0413C21.2208 22.5328 21.0405 23.1032 21.0414 23.6854C21.2478 23.8178 21.4986 23.879 21.7493 23.858C21.9375 23.858 21.8658 22.9702 22.3139 22.5592C22.7619 22.1482 23.4339 22.0495 23.5056 21.9427C23.5773 21.8358 23.4698 21.1946 23.201 21.2192ZM22.3049 19.3039C19.4644 20.6027 18.7206 22.3866 18.7923 25.2966C18.864 28.2067 26.7046 30.1303 28.6491 25.124C30.8892 19.271 24.0612 18.4736 22.2691 19.2956L22.3049 19.3039ZM26.0415 23.1428C26.158 23.2497 27.3856 24.1046 27.3856 24.3102C27.2968 24.6419 27.1707 24.9642 27.0093 25.272C26.4506 24.6895 25.852 24.1404 25.2171 23.6279C25.0648 23.6279 24.6616 24.006 24.6616 24.006L26.6419 25.8885L26.0057 26.2995C26.0057 26.2995 24.0254 24.2115 23.9178 24.2115C23.8103 24.2115 23.3981 24.3513 23.4698 24.4828C24.1483 25.1841 24.7797 25.9226 25.3605 26.6941C25.1995 26.7944 25.0248 26.8745 24.8408 26.9325C24.8408 26.9325 22.8605 24.9431 22.7529 24.9431C22.6454 24.9431 22.045 25.2144 22.1526 25.3542C22.2601 25.4939 23.7655 27.0887 23.7655 27.0887C23.1823 27.0389 22.6165 26.8796 22.1032 26.6209C21.5899 26.3621 21.1401 26.0093 20.7816 25.5843C19.6973 24.1786 20.002 21.7125 22.9142 20.4136C24.0433 19.9122 25.7906 20.6191 26.606 21.137C27.4214 21.6549 27.5021 23.5046 27.5021 23.5046C27.5021 23.5046 26.4985 22.6167 26.3462 22.6825C26.1938 22.7483 25.8892 23.036 26.0057 23.1346L26.0415 23.1428ZM48.6583 12.4151C49.7425 8.37057 48.2461 6.83333 44.1779 6.76757C41.5157 6.81111 38.9084 7.46988 36.5972 8.68295C36.5972 8.68295 36.6689 8.78982 35.4413 7.41699C34.997 6.9982 34.4622 6.66924 33.8711 6.45122C33.2801 6.23321 32.646 6.13096 32.0093 6.15103C32.0173 5.03673 31.7508 3.93517 31.2297 2.92859C30.3337 1.04609 24.9573 -1.18168 21.4447 0.733706C17.9321 2.64909 16.4446 8.85558 16.2923 8.81448C8.15598 6.86622 2.2957 8.30481 0.727579 11.5273C-0.84054 14.7497 2.33154 17.4542 2.33154 17.4542C1.9444 18.0155 1.75789 18.6736 1.79805 19.3368C1.83821 19.9999 2.10303 20.635 2.55556 21.1535C4.12368 23.1428 7.0359 22.5592 7.0359 22.5592L9.23127 24.9185C9.23127 24.9185 3.11112 30.6728 1.543 33.139C-0.0251181 35.6052 -1.02871 39.2715 1.73118 40.4717C2.61506 40.8116 3.56659 40.9785 4.52482 40.9615C5.48305 40.9445 6.42685 40.7441 7.29576 40.3731C7.29576 40.3731 10.4678 43.6613 13.3801 41.9514C14.1897 41.5075 14.8135 40.8271 15.1515 40.0192C15.4894 39.2113 15.522 38.3227 15.2439 37.4959L16.14 37.1177C16.14 37.1177 17.7081 44.8943 23.3085 45.9219C28.9089 46.9495 30.9609 37.4959 30.9609 37.4959C33.4476 38.2643 35.9936 38.8606 38.5775 39.2797C44.1152 40.2415 46.0955 36.1888 44.9306 31.199C44.0705 28.0356 42.1529 25.1985 39.4467 23.0853C39.4467 23.0853 47.5471 16.4596 48.6583 12.4151ZM7.29576 20.4301C7.29576 20.4301 6.39969 18.786 6.21152 18.786C6.02334 18.786 5.6918 18.9915 5.76348 19.1312C6.13416 19.6313 6.45791 20.1593 6.73124 20.7096C6.53543 20.8395 6.32144 20.9445 6.09503 21.022C5.84596 20.5074 5.54602 20.0148 5.19896 19.5505C5.04663 19.5505 4.56275 19.6902 4.67924 19.8218C4.95631 20.2254 5.17045 20.6625 5.31545 21.1206C4.95853 21.0055 4.64202 20.8042 4.39919 20.5381C4.15636 20.2719 3.99619 19.9506 3.9355 19.608C3.86382 18.6462 4.08784 17.7255 5.20792 17.4131C6.50722 17.0514 7.82444 17.8899 7.89613 18.6791C7.8475 19.2977 7.64191 19.8973 7.29576 20.4301V20.4301ZM13.0127 40.2415C12.6724 39.6605 12.2734 39.11 11.8209 38.5974C11.6327 38.5974 11.1847 38.8687 11.337 39.0085C11.4894 39.1482 12.6453 40.5128 12.5288 40.6526C12.4123 40.7923 11.8926 40.8581 11.8926 40.8581C11.5045 40.1624 11.055 39.497 10.5485 38.8687C10.3603 38.8687 9.84059 38.9345 9.94812 39.1071C10.326 39.7094 10.6496 40.339 10.9159 40.9896C10.8083 40.9896 9.12374 40.6854 9.12374 39.2797C9.12374 37.874 9.53593 37.126 10.656 36.6738C11.7761 36.2217 12.932 36.5012 13.2367 37.7343C13.3881 38.5742 13.3112 39.4354 13.0127 40.2415V40.2415ZM14.8048 36.197C14.8048 36.197 14.0252 34.6598 11.4087 35.0708C10.5669 35.2357 9.77249 35.5618 9.0776 36.0279C8.38271 36.494 7.80299 37.0895 7.37641 37.7754C7.10715 38.2445 6.93116 38.7539 6.85669 39.2797C6.85669 39.2797 3.87278 40.1018 2.6362 38.8358C1.39963 37.5699 2.22401 34.4214 4.24017 31.8155C6.10564 29.6603 8.18114 27.6655 10.441 25.8556C11.2994 26.5374 12.1967 27.1767 13.1292 27.771C14.3657 28.5273 14.8496 28.7657 14.8496 28.7657C14.8084 30.139 14.8833 31.5132 15.0736 32.8759C15.3693 34.3474 15.5575 35.86 15.5575 35.86L14.8048 36.197ZM14.5091 24.7952C14.6256 25.8885 14.6614 26.6448 14.6614 26.6448C14.6614 26.6448 13.4697 25.9296 13.0216 25.6172C12.6889 25.3519 12.3884 25.0542 12.1256 24.7294C12.8008 23.9401 13.6229 23.2666 14.5539 22.74C14.4711 23.4279 14.4561 24.1213 14.5091 24.8116V24.7952ZM14.9571 16.476C14.7331 19.4354 14.6077 20.5123 14.6077 20.5123C13.1552 21.4389 11.8495 22.5455 10.7277 23.8005C9.76179 23.3272 8.93956 22.6407 8.3352 21.8029C8.3352 21.8029 10.423 19.5094 9.23127 17.3885C8.0395 15.2676 5.83517 15.8841 5.09143 16.0568C4.55907 16.2011 4.05427 16.4201 3.595 16.7062C3.595 16.7062 1.02328 13.6892 3.14696 11.8396C5.27064 9.99001 9.04309 9.43924 12.2958 9.75162C15.5485 10.064 15.9518 10.5737 15.9518 10.5737C15.4711 12.5231 15.1388 14.5008 14.9571 16.4924V16.476ZM31.0057 7.65539C32.7351 7.12927 35.4861 8.47744 34.59 11.0094C34.4297 11.4918 34.1264 11.924 33.714 12.2575C33.3015 12.591 32.7961 12.8128 32.2542 12.898C31.7123 12.9833 31.1553 12.9287 30.6452 12.7404C30.1352 12.552 29.6923 12.2373 29.3659 11.8314C29.1109 11.4708 28.9503 11.061 28.8966 10.6341C28.8428 10.2071 28.8975 9.77449 29.0563 9.37012C29.2151 8.96574 29.4737 8.60054 29.8119 8.30307C30.1501 8.0056 30.5587 7.78393 31.0057 7.65539V7.65539ZM33.3624 20.2985C34.1878 20.7452 34.9756 21.2481 35.719 21.8029C36.7674 22.5263 37.0273 22.7647 36.9915 22.8962C36.1292 23.7822 35.1946 24.6067 34.1957 25.3624C33.5748 25.8241 32.9124 26.2366 32.2154 26.5955C32.2154 26.5955 32.8158 24.2691 33.1115 22.8634C33.2535 22.0113 33.3373 21.152 33.3624 20.2903V20.2985ZM31.633 14.4373L31.5344 17.2241L26.7584 14.3798L28.443 13.3522C28.8764 13.6991 29.3701 13.977 29.9036 14.1743C30.4661 14.3265 31.0469 14.4149 31.633 14.4373ZM21.373 2.75595C23.2368 1.17761 25.9698 0.972101 28.4699 2.65731C30.9699 4.34252 30.4502 6.21679 30.4502 6.21679C30.4502 6.21679 27.9501 7.03885 27.5738 8.8227C27.345 9.88909 27.3695 10.9882 27.6455 12.0451L25.3605 13.2371C24.0961 12.4043 22.773 11.6491 21.3999 10.9765C19.3837 10.0147 18.1561 9.57077 18.1561 9.57077C18.1561 9.57077 19.5092 4.33429 21.373 2.75595ZM16.9285 14.7579C17.0738 13.5877 17.3226 12.4303 17.6722 11.2971C18.8782 11.6746 20.0423 12.1563 21.149 12.7357C22.068 13.1057 22.9037 13.6298 23.6132 14.2811C23.6132 14.2811 21.4088 15.654 19.545 16.9857C17.6812 18.3174 16.3998 19.1641 16.3998 19.1641C16.3998 19.1641 16.6328 16.9035 16.9285 14.7579ZM17.1167 33.0157C17.0438 32.3213 17.0438 31.6221 17.1167 30.9277L19.4733 32.506C20.4411 33.1554 21.1938 33.6405 21.1938 33.6405C21.1938 33.6405 19.554 34.3967 18.7296 34.7338C18.3774 34.8904 18.0153 35.0277 17.6453 35.1448C17.6453 35.1448 17.2959 33.6651 17.1167 32.9993V33.0157ZM25.925 43.7024C23.7207 45.0423 21.6329 44.286 20.2171 41.713C19.2352 40.0604 18.5313 38.2811 18.1292 36.4354C18.9197 36.052 19.744 35.7302 20.5934 35.4736C21.3383 35.1931 22.06 34.8634 22.7529 34.4872C23.797 35.2788 24.9823 35.899 26.2566 36.3203L29.0971 37.315C29.0971 37.315 28.1293 42.3213 25.934 43.6531L25.925 43.7024ZM29.5093 33.698C29.2853 34.8653 29.0971 35.4819 29.0971 35.4819L26.4089 34.6598C25.7291 34.387 25.1002 34.0181 24.5451 33.5665C25.5166 33.1249 26.4538 32.6223 27.3498 32.0621C28.7297 31.2401 29.9304 30.418 29.9304 30.418C29.9304 30.418 29.7781 32.4896 29.5541 33.6651L29.5093 33.698ZM30.1813 28.3218C30.1813 28.3218 23.3533 32.9499 23.0128 32.8102C22.6723 32.6704 16.4805 28.478 16.3998 28.3053C16.3192 28.1327 16.1758 21.2192 16.3998 21.0137C16.6238 20.8082 23.9805 16.0814 25.1006 15.5717C27.3202 16.7111 29.4654 17.9682 31.5254 19.3367C31.5344 19.5751 30.2261 28.2725 30.2261 28.2725L30.1813 28.3218ZM42.9862 31.7497C43.5865 35.6545 43.9987 37.126 41.0058 37.5041C38.013 37.8822 31.1491 35.9669 31.1491 35.9669C31.4841 34.4729 31.7324 32.9637 31.8928 31.4456C32.0093 29.8015 32.1168 28.6753 32.1168 28.6753C32.1168 28.6753 34.5183 27.0887 35.9341 25.9789C37.3499 24.8692 38.1743 24.1622 38.1743 24.1622C38.1743 24.1622 42.4306 27.7957 43.031 31.7004L42.9862 31.7497ZM38.5058 21.8851C37.5034 21.0826 36.4566 20.3281 35.3696 19.6245L33.4251 18.3749L33.7656 14.166C34.6683 13.7158 35.4397 13.0729 36.0147 12.2918C36.3582 11.6468 36.5736 10.9509 36.651 10.2366C36.651 10.2366 44.7156 6.57028 46.6959 8.8638C48.6762 11.1573 41.884 18.9997 40.5399 20.1999C39.1958 21.4001 38.5865 21.8358 38.5865 21.8358L38.5058 21.8851Z" fill="#FF57A8"/>
</svg>
